<svg xmlns="http://www.w3.org/2000/svg" width="25" height="25" style="shape-rendering:geometricPrecision; text-rendering:geometricPrecision; image-rendering:optimizeQuality; fill-rule:evenodd; clip-rule:evenodd" viewBox="0 0 40486 40486">
 <path fill="#555" d="M24374 38296l0 0zm-4965 -38296l1770 0c1341,60 2696,259 4079,603 1029,256 1817,535 2757,920 706,289 996,445 1661,777l1539 897c254,170 475,310 713,486 579,429 1498,1112 2042,1635 1071,1031 1726,1756 2609,2927 95,126 149,213 242,336 421,563 1077,1653 1392,2284 398,795 828,1678 1111,2525 209,624 397,1191 567,1871 168,673 295,1302 400,2036 104,717 168,1434 195,2149l0 1540c-55,1455 -262,2896 -612,4305 -558,2248 -1714,4776 -3082,6667l-1645 2032c-2145,2168 -3560,3262 -6352,4637l-1730 707c-609,202 -1222,402 -1873,565 -1355,340 -2768,536 -4191,587l-1508 0c-1671,-60 -3335,-320 -4915,-780 -760,-222 -1442,-469 -2138,-754 -1055,-433 -2748,-1307 -3712,-2031l-1227 -920c-563,-440 -1904,-1671 -2237,-2101 -125,-162 -213,-221 -330,-372 -428,-552 -626,-756 -1045,-1311 -447,-592 -1233,-1827 -1562,-2486l-657 -1367c-611,-1461 -863,-2206 -1232,-3809 -432,-1877 -438,-3117 -438,-5014 0,-799 103,-1586 199,-2280 238,-1704 911,-4085 1687,-5625 295,-584 720,-1451 1072,-1986 93,-142 145,-239 239,-380 168,-250 314,-484 480,-718 169,-239 351,-468 531,-709l1110 -1327c1031,-1071 1756,-1726 2927,-2609l1074 -743c252,-165 481,-307 747,-452 1068,-583 2161,-1162 3324,-1550 2022,-676 4012,-1072 6019,-1162zm-13212 32306c164,-4 273,-47 408,-88 814,-244 2224,-567 3031,-728 612,-122 1188,-238 1807,-341l1859 -289 1281 3842c422,1062 842,2095 1336,3125 57,118 167,358 193,469l-803 -188c-273,-78 -507,-144 -762,-230 -1985,-668 -3558,-1449 -5245,-2687 -1046,-767 -1011,-837 -1895,-1575l-1210 -1310zm18177 5990c66,-282 269,-601 389,-891 397,-957 738,-1677 1152,-2732 374,-951 665,-1905 985,-2857l283 -1039c329,0 1545,181 1907,242 639,108 1202,200 1835,313 355,63 3168,655 3488,809 -94,178 -90,139 -216,279 -360,402 -829,959 -1236,1284l-1074 951c-1583,1256 -2655,1867 -4442,2664 -420,187 -2564,966 -3071,977zm-9336 -7643c403,0 727,-77 1115,-82l1652 -124c201,-11 420,11 620,0 1195,-64 2077,-41 3305,-41 273,0 684,-24 939,11l2779 154c-9,397 -823,2635 -1007,3165 -130,373 -253,660 -382,1023 -246,693 -1082,2644 -1462,3413 -53,107 -179,379 -206,496 -439,0 -1375,124 -2107,124 -416,0 -705,-35 -1117,-40 -348,-4 -705,-84 -1072,-84l-850 -1918c-280,-668 -538,-1287 -809,-1959 -407,-1011 -908,-2528 -1238,-3595 -45,-144 -102,-411 -160,-543zm20532 42c-213,-102 -626,-184 -895,-263 -1928,-563 -4500,-988 -6488,-1278 -117,-18 -412,-67 -549,-70 175,-365 641,-3260 700,-3679 92,-660 158,-1272 211,-1978 63,-824 121,-1415 121,-2317l10081 0c0,1662 -535,3818 -1038,5325 -355,1062 -1181,2779 -1829,3748 -92,136 -277,371 -314,512zm-33835 -9585l10080 0c0,2664 403,5097 940,7612 37,172 89,319 93,485 -376,0 -1595,225 -2048,307 -1913,347 -3001,624 -4810,1098 -251,66 -694,242 -950,248 -211,-398 -712,-1080 -1074,-1777l-675 -1348c-186,-383 -320,-805 -470,-1184 -549,-1390 -1086,-3863 -1086,-5441zm11774 0l13468 0 -53 1022c-79,578 -66,1255 -177,2053 -51,362 -72,637 -124,992 -65,450 -535,3314 -720,3700 -342,0 -758,-33 -1045,-71l-5731 -136c-290,-2 -393,43 -659,43 -643,1 -1961,56 -2580,147l-1305 100 -396 -1836c-117,-657 -221,-1233 -319,-1911 -87,-601 -184,-1362 -233,-1998 -26,-340 -17,-718 -67,-1048 -49,-324 -18,-737 -59,-1057zm868 -8758l3063 242c500,56 3287,86 3919,89 289,2 393,-43 659,-43 234,0 470,1 704,2l1693 -83c497,-26 1069,-124 1694,-124l313 1628c178,935 385,2511 431,3452l124 1860 -13468 0 117 -1824c184,-1743 245,-2608 596,-4362 41,-205 155,-615 155,-837zm13467 -124c145,-12 364,-58 503,-75 2314,-278 4942,-868 7181,-1495 155,-43 323,-109 496,-123 381,568 697,1227 1019,1872 836,1669 1341,3774 1602,5628 59,416 106,905 106,1340l-10081 0c0,-1864 -301,-4480 -671,-6310 -41,-204 -149,-616 -155,-837zm-16029 6982l0 165 -10080 0c0,-1488 486,-3669 935,-5014 404,-1213 972,-2475 1634,-3571 86,-143 247,-353 282,-503l1908 570c1208,331 2864,715 4046,911l1594 266c162,23 336,70 549,70 -454,1946 -868,5176 -868,7106zm6280 -17392c436,0 1399,-124 2148,-124 403,0 680,36 1076,39 347,4 705,85 1072,85l986 2236c935,2266 1319,3411 2025,5618 348,1090 352,1067 50,1071 -250,4 -308,36 -541,40 -264,3 -770,39 -1003,71l-3211 94c-248,0 -496,-1 -743,0 -310,0 -486,-40 -742,-43 -248,-3 -499,3 -747,3l-1445 -83c-503,2 -1630,-167 -2189,-167 11,-495 1233,-3998 1458,-4573 582,-1488 1044,-2569 1682,-3977 50,-110 93,-157 124,-290zm6279 372c560,12 2790,852 3276,1062 1488,643 2851,1491 4101,2466 107,84 199,155 296,242 106,94 188,150 290,247l1921 1921c104,112 149,178 248,289 92,103 159,189 243,294 102,129 165,191 242,336l-1776 455c-1266,308 -3452,745 -4758,901 -322,39 -733,125 -1026,132 -265,-1138 -923,-3170 -1375,-4326 -140,-356 -249,-665 -389,-1016l-1293 -3003zm-11278 8221c-316,0 -703,-76 -992,-124 -316,-53 -648,-109 -956,-160 -1628,-267 -3020,-627 -4588,-1030 -321,-82 -585,-183 -900,-256l960 -1146c217,-214 448,-516 785,-827 112,-104 175,-131 290,-247l1458 -1227 1586 -1059c657,-393 1413,-797 2126,-1095 501,-209 2686,-1038 3247,-1050 -28,116 -153,389 -206,496 -82,164 -137,300 -221,481 -419,896 -887,2056 -1232,2982 -419,1125 -1071,3031 -1357,4262zm11278 -8221l0 0z"/>
</svg>